<svg id="Grupo_4862" data-name="Grupo 4862" xmlns="http://www.w3.org/2000/svg" width="174.276" height="61.134" viewBox="0 0 174.276 61.134">
  <path id="Trazado_745" data-name="Trazado 745" d="M89.431,71.219V87.127h14.115a1.782,1.782,0,1,1,0,3.565H89.431V108.65a1.894,1.894,0,0,1-1.894,1.894h-.247A1.893,1.893,0,0,1,85.4,108.65V70.857a3.23,3.23,0,0,1,3.231-3.231H104.82a1.781,1.781,0,0,1,1.782,1.781v.03a1.781,1.781,0,0,1-1.782,1.782Z" transform="translate(-65.128 -67.604)" fill="#616eb3"/>
  <path id="Trazado_746" data-name="Trazado 746" d="M108.829,108.6V69.549a1.942,1.942,0,1,1,3.883,0V108.6a1.942,1.942,0,1,1-3.883,0" transform="translate(-61.719 -67.607)" fill="#616eb3"/>
  <path id="Trazado_747" data-name="Trazado 747" d="M122.284,94.378a16.477,16.477,0,0,0,.758,4.978,10.453,10.453,0,0,0,2.094,3.741,8.982,8.982,0,0,0,3.322,2.343,11.433,11.433,0,0,0,4.414.81,15.354,15.354,0,0,0,7.607-2.038,1.55,1.55,0,0,1,1.581,2.666,18.8,18.8,0,0,1-10.068,2.613,14.635,14.635,0,0,1-5.673-1.061,11.747,11.747,0,0,1-4.338-3.078,13.947,13.947,0,0,1-2.762-4.963,21.432,21.432,0,0,1-.97-6.717,18.05,18.05,0,0,1,1.062-6.275,15.37,15.37,0,0,1,2.943-4.993,13.545,13.545,0,0,1,4.459-3.3,13.281,13.281,0,0,1,5.643-1.192,13.043,13.043,0,0,1,5.309,1.016,10.39,10.39,0,0,1,3.868,2.9,13.012,13.012,0,0,1,2.382,4.6,18.943,18.943,0,0,1,.7,3.6c.019.2.038.57.053,1.016a3.23,3.23,0,0,1-3.23,3.336Zm18.446-3.3q-.091-4.713-2.306-7.306a7.667,7.667,0,0,0-6.158-2.592,9.712,9.712,0,0,0-3.656.678,8.721,8.721,0,0,0-2.958,1.959,10.583,10.583,0,0,0-2.109,3.123,15.332,15.332,0,0,0-1.167,4.139Z" transform="translate(-60.348 -66.108)" fill="#616eb3"/>
  <path id="Trazado_748" data-name="Trazado 748" d="M159.6,93.488l8.722,12.726a1.786,1.786,0,0,1-1.473,2.8h-.294a1.784,1.784,0,0,1-1.51-.832l-6.234-9.83q-.364-.558-.742-1.149t-.774-1.267h-.121q-.151.3-.47.781t-.774,1.222L149.2,108.215a1.791,1.791,0,0,1-1.5.809h-.152a1.786,1.786,0,0,1-1.455-2.821l8.951-12.626L146.71,80.939a1.787,1.787,0,0,1,1.491-2.77h.2a1.789,1.789,0,0,1,1.524.856l5.939,9.721q.486.8.85,1.428t.607,1.046h.12q.4-.56.729-1.134c.222-.384.456-.771.7-1.164l6.33-9.927a1.787,1.787,0,0,1,1.506-.826,1.756,1.756,0,0,1,1.312.573,1.78,1.78,0,0,1,.162,2.223Z" transform="translate(-56.345 -66.07)" fill="#616eb3"/>
  <path id="Trazado_749" data-name="Trazado 749" d="M182.936,107.08V80.11a1.942,1.942,0,1,1,3.883,0v26.97a1.942,1.942,0,0,1-3.883,0" transform="translate(-50.935 -66.07)" fill="#a5b5de"/>
  <path id="Trazado_750" data-name="Trazado 750" d="M177.646,102.907a2.93,2.93,0,1,1-2.93-2.93,2.93,2.93,0,0,1,2.93,2.93" transform="translate(-52.557 -62.897)" fill="#a5b5de"/>
  <path id="Trazado_751" data-name="Trazado 751" d="M187.652,70.308a2.714,2.714,0,0,1-2.824,2.7,2.667,2.667,0,0,1-2.622-2.7,2.785,2.785,0,0,1,2.756-2.7,2.685,2.685,0,0,1,2.69,2.7" transform="translate(-51.041 -67.607)" fill="#a5b5de"/>
  <path id="Trazado_752" data-name="Trazado 752" d="M219.609,82.458a15.591,15.591,0,0,0-11.452-4.484,15.994,15.994,0,0,0-11.075,4.283,15.75,15.75,0,0,0-4.8,11.776c0,8.952,6.5,15.45,15.448,15.45a16.97,16.97,0,0,0,10.815-3.842,16.518,16.518,0,0,0,1.064-23.183m-11.452-1.3a11.2,11.2,0,0,1,9.1,4.157,13.343,13.343,0,0,1,2.856,8.231c0,8.373-6.14,12.753-12.2,12.753-7.812,0-11.9-6.263-11.9-12.448,0-8.768,6.1-12.692,12.142-12.692" transform="translate(-49.575 -66.098)" fill="#a5b5de"/>
  <path id="Trazado_753" data-name="Trazado 753" d="M79.64,78.284v0l-.113-.006a2.257,2.257,0,0,0-.3,0,12.427,12.427,0,0,0-7.731,4.014v-2.23a1.894,1.894,0,1,0-3.787,0v27a1.969,1.969,0,0,0,.659,1.465,1.853,1.853,0,0,0,1.272.479,1.893,1.893,0,0,0,1.857-1.895V92.59c.236-7.384,3.769-9.954,6.479-10.835a9.559,9.559,0,0,1,1.317-.312c.038-.006.158-.018.322-.033a1.636,1.636,0,0,0,1.042-.505,1.537,1.537,0,0,0,.424-1,1.569,1.569,0,0,0-1.434-1.625" transform="translate(-67.703 -66.07)" fill="#616eb3"/>
  <path id="Trazado_754" data-name="Trazado 754" d="M141.974,118.253a3.648,3.648,0,1,1-3.648-3.648,3.648,3.648,0,0,1,3.648,3.648" transform="translate(-57.957 -60.768)" fill="#fecf4a"/>
  <path id="Trazado_755" data-name="Trazado 755" d="M167.821,118.253a3.648,3.648,0,1,1-3.648-3.648,3.648,3.648,0,0,1,3.648,3.648" transform="translate(-54.196 -60.768)" fill="#616eb3"/>
  <path id="Trazado_756" data-name="Trazado 756" d="M193.668,118.253a3.648,3.648,0,1,1-3.648-3.648,3.649,3.649,0,0,1,3.648,3.648" transform="translate(-50.435 -60.768)" fill="#914b97"/>
  <path id="Trazado_757" data-name="Trazado 757" d="M219.515,118.253a3.648,3.648,0,1,1-3.648-3.648,3.649,3.649,0,0,1,3.648,3.648" transform="translate(-46.674 -60.768)" fill="#68c0b4"/>
  <path id="Trazado_758" data-name="Trazado 758" d="M116.127,118.253a3.648,3.648,0,1,1-3.648-3.648,3.648,3.648,0,0,1,3.648,3.648" transform="translate(-61.719 -60.768)" fill="#a5b5de"/>
</svg>
